<?xml version="1.0" encoding="UTF-8" standalone="no"?>
<!-- Created with Inkscape (http://www.inkscape.org/) -->

<svg
   xmlns:dc="http://purl.org/dc/elements/1.1/"
   xmlns:cc="http://creativecommons.org/ns#"
   xmlns:rdf="http://www.w3.org/1999/02/22-rdf-syntax-ns#"
   xmlns:svg="http://www.w3.org/2000/svg"
   xmlns="http://www.w3.org/2000/svg"
   xmlns:sodipodi="http://sodipodi.sourceforge.net/DTD/sodipodi-0.dtd"
   xmlns:inkscape="http://www.inkscape.org/namespaces/inkscape"
   version="1.1"
   id="svg815"
   xml:space="preserve"
   width="786.47473"
   height="265.73773"
   viewBox="0 0 786.47472 265.73773"
   sodipodi:docname="logo-welding.svg"
   inkscape:version="0.92.4 (5da689c313, 2019-01-14)"><metadata
     id="metadata821"><rdf:RDF><cc:Work
         rdf:about=""><dc:format>image/svg+xml</dc:format><dc:type
           rdf:resource="http://purl.org/dc/dcmitype/StillImage" /><dc:title></dc:title></cc:Work></rdf:RDF></metadata><defs
     id="defs819"><clipPath
       clipPathUnits="userSpaceOnUse"
       id="clipPath833"><path
         d="M 0,595.276 H 841.89 V 0 H 0 Z"
         id="path831"
         inkscape:connector-curvature="0" /></clipPath></defs><sodipodi:namedview
     pagecolor="#ffffff"
     bordercolor="#666666"
     borderopacity="1"
     objecttolerance="10"
     gridtolerance="10"
     guidetolerance="10"
     inkscape:pageopacity="0"
     inkscape:pageshadow="2"
     inkscape:window-width="1440"
     inkscape:window-height="837"
     id="namedview817"
     showgrid="false"
     inkscape:zoom="0.80634863"
     inkscape:cx="444.11975"
     inkscape:cy="-17.075444"
     inkscape:window-x="-8"
     inkscape:window-y="-8"
     inkscape:window-maximized="1"
     inkscape:current-layer="g823" /><g
     id="g823"
     inkscape:groupmode="layer"
     inkscape:label="CZECH-WELDING.EU logo BlackWhite (dark background)"
     transform="matrix(1.3333333,0,0,-1.3333333,-168.02226,529.71972)"><g
       id="g827"
       inkscape:export-filename="C:\Users\Michal\Downloads\logo-welding.png"
       inkscape:export-xdpi="73.335472"
       inkscape:export-ydpi="73.335472"><g
         id="g829"
         clip-path="url(#clipPath833)"><g
           id="g835"
           transform="translate(288.6938,290.7131)"><path
             d="M 0,0 -7.36,-60 H 8.32 l 3.36,27.6 c 1.12,0.639 3.04,1.44 5.28,1.44 2.16,0 2.88,-1.2 2.64,-3.2 L 16.48,-60 h 15.68 l 3.28,27.279 c 0.96,7.84 -0.88,14 -12.56,14 -3.12,0 -6.8,-0.719 -9.76,-2.08 L 15.68,0 Z"
             style="fill:#ffffff;fill-opacity:1;fill-rule:evenodd;stroke:none"
             id="path837"
             inkscape:connector-curvature="0" /></g><g
           id="g839"
           transform="translate(248.2939,250.7131)"><path
             d="m 0,0 c -1.68,-13.761 2.96,-21.28 17.68,-21.28 4.64,0 8.24,0.639 10.8,1.599 l 1.36,12.641 c -1.92,-0.721 -4.4,-1.36 -7.68,-1.36 -5.12,0 -7.52,2.16 -6.8,8.4 0.8,6.239 3.76,8.399 8.88,8.399 3.28,0 5.6,-0.639 7.36,-1.36 l 1.68,12.641 c -2.32,0.96 -5.76,1.599 -10.4,1.599 C 8.16,21.279 1.68,13.76 0,0"
             style="fill:#ffffff;fill-opacity:1;fill-rule:evenodd;stroke:none"
             id="path841"
             inkscape:connector-curvature="0" /></g><g
           id="g843"
           transform="translate(221.4141,254.2326)"><path
             d="m 0,0 c 0.479,4.8 3.52,7.2 7.04,7.2 2.8,0 4.32,-1.04 4,-3.6 C 10.72,1.04 8.96,0 6.16,0 Z m 5.12,-8 c 13.04,0 18.8,4.48 19.84,12.88 1.04,8.4 -3.6,12.88 -16.64,12.88 -13.76,0 -21.04,-6.8 -22.8,-21.28 C -16.24,-18 -11.2,-24.8 3.6,-24.8 c 4.879,0 11.68,0.8 16.8,2.8 l 1.12,10.96 c -3.92,-1.28 -9.28,-2.399 -14.4,-2.399 -6.72,0 -8.8,1.599 -8.16,5.439 z"
             style="fill:#ffffff;fill-opacity:1;fill-rule:evenodd;stroke:none"
             id="path845"
             inkscape:connector-curvature="0" /></g><g
           id="g847"
           transform="translate(203.4141,230.7131)"><path
             d="M 0,0 1.6,13.199 -15.28,12.64 2.64,29.359 3.92,39.999 H -30.32 L -31.92,26.8 -17.36,27.359 -35.2,10.64 -36.48,0 Z"
             style="fill:#ffffff;fill-opacity:1;fill-rule:evenodd;stroke:none"
             id="path849"
             inkscape:connector-curvature="0" /></g><g
           id="g851"
           transform="translate(126.5342,260.7121)"><path
             d="m 0,0 c -2.64,-21.839 4.8,-31.279 22.8,-31.279 7.28,0 11.28,1.28 14.16,2.479 l 1.6,14 c -3.84,-1.279 -7.28,-2.16 -12.24,-2.16 -8.08,0 -12.24,3.601 -10.56,16.96 1.6,13.28 6.64,16.96 14.72,16.96 4.96,0 8.16,-0.879 11.68,-2.159 l 1.92,14 C 41.36,29.92 37.76,31.28 30.48,31.28 12.48,31.28 2.72,21.761 0,0"
             style="fill:#ffffff;fill-opacity:1;fill-rule:evenodd;stroke:none"
             id="path853"
             inkscape:connector-curvature="0" /></g><g
           id="g855"
           transform="translate(668.7373,245.3361)"><path
             d="m 0,0 c -0.4,-0.2 -2.8,-1.5 -5.5,-1.5 -5.2,0 -6.101,3.399 -5.1,11.8 C -9.5,18.7 -7.801,22 -2.601,22 0.1,22 2.2,20.699 2.5,20.5 Z m 10.899,35.3 -2.5,-3.401 c -3.899,2.901 -8.5,5 -15.199,5 -13,0 -20.6,-7.399 -23,-26.599 -2.301,-19.2 3.499,-26.6 16.5,-26.6 4.5,0 8.3,1.1 11.6,2.6 l -0.5,-4.1 c -0.7,-5.801 -4.3,-8.1 -12.2,-8.1 -5.5,0 -10.4,1.299 -16.201,3.799 L -32.7,-38.2 c 4.9,-2 12.2,-3.101 20,-3.101 26,0 29.2,16.401 30.9,30.301 l 5.699,46.3 z"
             style="fill:#ffffff;fill-opacity:1;fill-rule:evenodd;stroke:none"
             id="path857"
             inkscape:connector-curvature="0" /></g><g
           id="g859"
           transform="translate(588.1367,280.636)"><path
             d="m 0,0 -6.1,-50 h 19.6 l 4.2,34.5 c 1.401,0.8 3.8,1.8 6.601,1.8 2.699,0 3.599,-1.5 3.3,-4 L 23.7,-50 h 19.601 l 4.099,34.1 c 1.201,9.8 -1.099,17.5 -15.7,17.5 -6,0 -12.099,-1.8 -17.3,-4.8 L 13,0 Z"
             style="fill:#ffffff;fill-opacity:1;fill-rule:evenodd;stroke:none"
             id="path861"
             inkscape:connector-curvature="0" /></g><g
           id="g863"
           transform="translate(560.5371,295.4358)"><path
             d="m 0,0 c 0,-6.1 4.899,-11 11,-11 6.1,0 11,4.9 11,11 C 22,6.1 17.1,11 11,11 4.899,11 0,6.1 0,0"
             style="fill:#ffffff;fill-opacity:1;fill-rule:evenodd;stroke:none"
             id="path865"
             inkscape:connector-curvature="0" /></g><g
           id="g867"
           transform="translate(579.1367,245.5363)"><path
             d="m 0,0 c -2.8,0 -3.8,1 -3.6,2.999 l 4,32.101 h -19.599 l -4.5,-36.701 C -25,-11.7 -18.7,-15.9 -9.3,-15.9 c 3.8,0 7.401,0.799 7.401,0.799 z"
             style="fill:#ffffff;fill-opacity:1;fill-rule:evenodd;stroke:none"
             id="path869"
             inkscape:connector-curvature="0" /></g><g
           id="g871"
           transform="translate(529.4365,245.3361)"><path
             d="m 0,0 c -0.399,-0.2 -2.8,-1.5 -5.5,-1.5 -5.199,0 -6.1,3.3 -5.1,11.8 1.1,8.4 2.8,11.7 8,11.7 2.701,0 4.8,-1.301 5.101,-1.5 z M 17.801,-14.7 27,60.3 H 7.4 L 4.2,34.199 c -2.899,1.601 -6.5,2.7 -11,2.7 -13,0 -20.599,-7.399 -23,-26.599 -2.3,-19.2 3.5,-26.6 16.5,-26.6 6.7,0 11.8,2.1 16.401,4.9 l 1.7,-3.3 z"
             style="fill:#ffffff;fill-opacity:1;fill-rule:evenodd;stroke:none"
             id="path873"
             inkscape:connector-curvature="0" /></g><g
           id="g875"
           transform="translate(495.2373,245.5363)"><path
             d="M 0,0 C -2.801,0 -3.801,1 -3.601,2.999 L 3.5,60.1 H -16.101 L -23.7,-1.601 c -1.301,-10.099 5,-14.299 14.4,-14.299 3.8,0 7.4,0.799 7.4,0.799 z"
             style="fill:#ffffff;fill-opacity:1;fill-rule:evenodd;stroke:none"
             id="path877"
             inkscape:connector-curvature="0" /></g><g
           id="g879"
           transform="translate(437.6367,260.0363)"><path
             d="M 0,0 C 0.601,5.999 4.4,9 8.801,9 12.301,9 14.2,7.699 13.8,4.5 13.4,1.3 11.2,0 7.7,0 Z m 6.4,-10 c 16.3,0 23.5,5.6 24.8,16.1 1.3,10.5 -4.5,16.099 -20.8,16.099 -17.2,0 -26.299,-8.5 -28.5,-26.599 -2.2,-18.1 4.1,-26.6 22.6,-26.6 6.101,0 14.601,0.999 21,3.5 l 1.4,13.699 c -4.9,-1.599 -11.6,-3 -18,-3 -8.4,0 -11,2 -10.2,6.801 z"
             style="fill:#ffffff;fill-opacity:1;fill-rule:evenodd;stroke:none"
             id="path881"
             inkscape:connector-curvature="0" /></g><g
           id="g883"
           transform="translate(382.6367,230.2355)"><path
             d="M 0,0 H 23.5 L 44.4,75.4 H 24.2 L 13.7,28 11.8,75.4 H -9.8 L -23.5,28 -22.2,75.4 H -42.4 L -40.1,0 h 23.5 l 14.4,49.601 z"
             style="fill:#ffffff;fill-opacity:1;fill-rule:evenodd;stroke:none"
             id="path885"
             inkscape:connector-curvature="0" /></g><g
           id="g887"
           transform="translate(602.3623,217.1359)"><path
             d="m 0,0 h -5.475 l 4.5,-11.45 -0.924,-7.3 H 3 l 0.825,7.3 L 11.175,0 H 5.7 L 1.976,-7.05 Z"
             style="fill:#ffffff;fill-opacity:1;fill-rule:evenodd;stroke:none"
             id="path889"
             inkscape:connector-curvature="0" /></g><g
           id="g891"
           transform="translate(579.0625,217.1359)"><path
             d="M 0,0 -2.3,-18.75 H 2.6 L 3.55,-9 7.625,-18.75 H 12.35 L 14.65,0 H 9.75 L 8.775,-9.75 4.725,0 Z"
             style="fill:#ffffff;fill-opacity:1;fill-rule:evenodd;stroke:none"
             id="path893"
             inkscape:connector-curvature="0" /></g><g
           id="g895"
           transform="translate(567.6621,205.5109)"><path
             d="m 0,0 h -2.449 l 2.125,7.15 z m 0.301,-3.725 0.3,-3.4 H 5.75 l -2.3,18.85 H -3 l -6.899,-18.85 h 5.15 l 1.1,3.4 z"
             style="fill:#ffffff;fill-opacity:1;fill-rule:evenodd;stroke:none"
             id="path897"
             inkscape:connector-curvature="0" /></g><g
           id="g899"
           transform="translate(549.8623,212.8361)"><path
             d="m 0,0 h 1.8 c 1.45,0 1.65,-1.275 1.575,-1.975 -0.1,-0.751 -0.6,-1.975 -2.05,-1.975 h -1.8 z m -1,-8.2 h 1.775 c 5.225,0 7.4,2.975 7.8,6.25 C 8.976,1.274 7.551,4.3 2.325,4.3 H -4.35 l -2.299,-18.75 h 4.899 z"
             style="fill:#ffffff;fill-opacity:1;fill-rule:evenodd;stroke:none"
             id="path901"
             inkscape:connector-curvature="0" /></g><g
           id="g903"
           transform="translate(528.9375,217.1359)"><path
             d="m 0,0 h -6.375 l -2.3,-18.75 H -3.8 l 1.075,11.05 1.499,-8.85 H 3.225 L 6.925,-7.7 5.3,-18.75 h 4.875 L 12.475,0 H 6.1 L 1.7,-10.825 Z"
             style="fill:#ffffff;fill-opacity:1;fill-rule:evenodd;stroke:none"
             id="path905"
             inkscape:connector-curvature="0" /></g><g
           id="g907"
           transform="translate(512.5371,207.7609)"><path
             d="m 0,0 c -0.524,-4.175 -1.324,-5.425 -3.3,-5.425 -1.974,0 -2.474,1.25 -1.95,5.425 0.5,4.175 1.3,5.425 3.275,5.425 C 0,5.425 0.5,4.175 0,0 m -10.225,0 c -0.75,-5.925 0.201,-9.774 6.4,-9.774 6.2,0 8.051,3.849 8.801,9.774 0.724,5.925 -0.201,9.775 -6.401,9.775 -6.2,0 -8.075,-3.85 -8.8,-9.775"
             style="fill:#ffffff;fill-opacity:1;fill-rule:evenodd;stroke:none"
             id="path909"
             inkscape:connector-curvature="0" /></g><g
           id="g911"
           transform="translate(485.9873,207.7609)"><path
             d="m 0,0 c -0.825,-6.825 1.5,-9.774 7.125,-9.774 2.275,0 3.525,0.399 4.425,0.774 l 0.5,4.375 C 10.85,-5.024 9.775,-5.3 8.226,-5.3 5.7,-5.3 4.4,-4.175 4.925,0 c 0.5,4.15 2.075,5.3 4.6,5.3 1.55,0 2.55,-0.275 3.65,-0.675 L 13.775,9 C 12.925,9.35 11.8,9.775 9.525,9.775 3.9,9.775 0.85,6.8 0,0"
             style="fill:#ffffff;fill-opacity:1;fill-rule:evenodd;stroke:none"
             id="path913"
             inkscape:connector-curvature="0" /></g><g
           id="g915"
           transform="translate(467.9121,197.9865)"><path
             d="M 0,0 C 2.75,0 5.051,0.6 6.4,1.375 L 7.676,11.624 H 0.426 L -0.074,7.6 H 2.275 L 1.851,4.25 c 0,0 -0.176,-0.025 -0.326,-0.025 -3.075,0 -4.174,1.275 -3.674,5.525 0.474,3.75 1.775,5.324 4.774,5.324 2.101,0 3.525,-0.425 5,-0.974 l 0.601,4.45 c -1.125,0.524 -2.976,1 -5.776,1 -5.724,0 -8.7,-3.226 -9.5,-9.776 C -7.875,3.225 -5.675,0 0,0"
             style="fill:#ffffff;fill-opacity:1;fill-rule:evenodd;stroke:none"
             id="path917"
             inkscape:connector-curvature="0" /></g><g
           id="g919"
           transform="translate(443.4629,217.1359)"><path
             d="M 0,0 -2.301,-18.75 H 2.6 L 3.55,-9 7.624,-18.75 H 12.35 L 14.649,0 H 9.75 L 8.774,-9.75 4.725,0 Z"
             style="fill:#ffffff;fill-opacity:1;fill-rule:evenodd;stroke:none"
             id="path921"
             inkscape:connector-curvature="0" /></g><g
           id="g923"
           transform="translate(436.9121,198.3859)"><path
             d="M 0,0 2.3,18.75 H -2.6 L -4.899,0 Z"
             style="fill:#ffffff;fill-opacity:1;fill-rule:evenodd;stroke:none"
             id="path925"
             inkscape:connector-curvature="0" /></g><g
           id="g927"
           transform="translate(420.1372,212.8605)"><path
             d="M 0,0 H 1.525 C 3.975,0 4.4,-1.749 4,-5.1 3.575,-8.475 2.7,-10.199 0.25,-10.199 h -1.525 z m -0.275,-14.475 c 6.575,0 8.625,4.05 9.3,9.375 0.65,5.3 -0.425,9.375 -7,9.375 h -6.4 l -2.3,-18.75 z"
             style="fill:#ffffff;fill-opacity:1;fill-rule:evenodd;stroke:none"
             id="path929"
             inkscape:connector-curvature="0" /></g><g
           id="g931"
           transform="translate(405.2871,217.1359)"><path
             d="M 0,0 H -4.9 L -7.2,-18.75 H 4.75 l 0.525,4.325 h -7.05 z"
             style="fill:#ffffff;fill-opacity:1;fill-rule:evenodd;stroke:none"
             id="path933"
             inkscape:connector-curvature="0" /></g><g
           id="g935"
           transform="translate(394.8872,210.1857)"><path
             d="m 0,0 h -7 l 0.325,2.625 h 7.7 l 0.55,4.325 h -12.6 l -2.3,-18.75 h 12.6 l 0.525,4.325 h -7.7 l 0.375,3.15 h 7 z"
             style="fill:#ffffff;fill-opacity:1;fill-rule:evenodd;stroke:none"
             id="path937"
             inkscape:connector-curvature="0" /></g><g
           id="g939"
           transform="translate(369.3369,198.2863)"><path
             d="M 0,0 H 5.875 L 11.1,18.85 H 6.05 L 3.425,7 2.95,18.85 h -5.4 L -5.875,7 -5.55,18.85 H -10.6 L -10.025,0 h 5.875 l 3.6,12.399 z"
             style="fill:#ffffff;fill-opacity:1;fill-rule:evenodd;stroke:none"
             id="path941"
             inkscape:connector-curvature="0" /></g><g
           id="g943"
           transform="translate(340.4873,197.9865)"><path
             d="M 0,0 C 2.75,0 5.05,0.6 6.4,1.375 L 7.675,11.624 H 0.425 L -0.075,7.6 h 2.35 L 1.85,4.25 c 0,0 -0.175,-0.025 -0.325,-0.025 -3.075,0 -4.175,1.275 -3.675,5.525 0.475,3.75 1.775,5.324 4.775,5.324 2.1,0 3.525,-0.425 5,-0.974 l 0.6,4.45 c -1.125,0.524 -2.975,1 -5.775,1 -5.725,0 -8.7,-3.226 -9.5,-9.776 C -7.875,3.225 -5.675,0 0,0"
             style="fill:#ffffff;fill-opacity:1;fill-rule:evenodd;stroke:none"
             id="path945"
             inkscape:connector-curvature="0" /></g><g
           id="g947"
           transform="translate(316.0371,217.1359)"><path
             d="M 0,0 -2.3,-18.75 H 2.6 L 3.55,-9 7.625,-18.75 H 12.35 L 14.65,0 H 9.75 L 8.775,-9.75 4.725,0 Z"
             style="fill:#ffffff;fill-opacity:1;fill-rule:evenodd;stroke:none"
             id="path949"
             inkscape:connector-curvature="0" /></g><g
           id="g951"
           transform="translate(309.4873,198.3859)"><path
             d="M 0,0 2.3,18.75 H -2.6 L -4.9,0 Z"
             style="fill:#ffffff;fill-opacity:1;fill-rule:evenodd;stroke:none"
             id="path953"
             inkscape:connector-curvature="0" /></g><g
           id="g955"
           transform="translate(289.062,207.7609)"><path
             d="m 0,0 c -0.825,-6.825 1.5,-9.774 7.125,-9.774 2.275,0 3.525,0.399 4.425,0.774 l 0.5,4.375 C 10.85,-5.024 9.775,-5.3 8.225,-5.3 5.7,-5.3 4.4,-4.175 4.925,0 c 0.5,4.15 2.075,5.3 4.6,5.3 1.55,0 2.55,-0.275 3.65,-0.675 L 13.775,9 C 12.925,9.35 11.8,9.775 9.525,9.775 3.9,9.775 0.85,6.8 0,0"
             style="fill:#ffffff;fill-opacity:1;fill-rule:evenodd;stroke:none"
             id="path957"
             inkscape:connector-curvature="0" /></g><g
           id="g959"
           transform="translate(276.8867,213.0607)"><path
             d="M 0,0 H 2.1 C 3.375,0 3.55,-1.05 3.45,-1.949 3.35,-2.825 2.95,-3.925 1.6,-3.925 H -0.5 Z M -0.975,-7.85 H 0.75 l 1.625,-6.825 H 8.05 l -2.425,7.75 c 1.925,1 2.775,2.7 3.05,5 0.45,3.675 -0.9,6 -6.15,6 H -4.4 l -2.3,-18.75 h 4.9 z"
             style="fill:#ffffff;fill-opacity:1;fill-rule:evenodd;stroke:none"
             id="path961"
             inkscape:connector-curvature="0" /></g><g
           id="g963"
           transform="translate(259.3867,202.3107)"><path
             d="m 0,0 c -1.25,0 -2.325,0.4 -2.075,2.525 l 1.525,12.3 h -4.9 L -7.025,2.15 c -0.625,-5.2 3.15,-6.474 6.5,-6.474 3.375,0 7.425,1.274 8.05,6.474 L 9.1,14.825 H 4.2 L 2.675,2.525 C 2.425,0.4 1.275,0 0,0"
             style="fill:#ffffff;fill-opacity:1;fill-rule:evenodd;stroke:none"
             id="path965"
             inkscape:connector-curvature="0" /></g><g
           id="g967"
           transform="translate(244.0117,207.7609)"><path
             d="m 0,0 c -0.525,-4.175 -1.325,-5.425 -3.3,-5.425 -1.975,0 -2.475,1.25 -1.95,5.425 0.5,4.175 1.3,5.425 3.275,5.425 C 0,5.425 0.5,4.175 0,0 m -10.225,0 c -0.75,-5.925 0.2,-9.774 6.4,-9.774 6.2,0 8.05,3.849 8.8,9.774 0.725,5.925 -0.2,9.775 -6.4,9.775 -6.2,0 -8.075,-3.85 -8.8,-9.775"
             style="fill:#ffffff;fill-opacity:1;fill-rule:evenodd;stroke:none"
             id="path969"
             inkscape:connector-curvature="0" /></g><g
           id="g971"
           transform="translate(224.0615,210.0109)"><path
             d="m 0,0 c -1.525,0.175 -2.3,0.476 -2.175,1.575 0.125,0.975 1.175,1.5 3.075,1.5 1.75,0 3.825,-0.425 4.95,-1 L 6.475,6.55 C 5.575,7.025 3.7,7.525 1.075,7.525 -4.05,7.525 -6.6,5.226 -7.05,1.55 c -0.5,-4.1 1.275,-5.25 5.85,-5.8 1.45,-0.2 2.175,-0.55 2.025,-1.7 -0.125,-1.025 -1,-1.625 -3.275,-1.625 -2.4,0 -4.475,0.801 -5.5,1.425 l -0.6,-4.575 c 1.3,-0.85 3.55,-1.299 6,-1.299 4.55,0 7.725,1.574 8.325,6.324 C 6.275,-1.475 4.25,-0.525 0,0"
             style="fill:#ffffff;fill-opacity:1;fill-rule:evenodd;stroke:none"
             id="path973"
             inkscape:connector-curvature="0" /></g><g
           id="g975"
           transform="translate(213.9868,212.8107)"><path
             d="m 0,0 0.55,4.325 h -13.7 L -13.7,0 h 4.4 l -1.75,-14.425 h 4.9 L -4.4,0 Z"
             style="fill:#ffffff;fill-opacity:1;fill-rule:evenodd;stroke:none"
             id="path977"
             inkscape:connector-curvature="0" /></g><g
           id="g979"
           transform="translate(188.4116,202.3107)"><path
             d="m 0,0 c -1.25,0 -2.325,0.4 -2.075,2.525 l 1.525,12.3 h -4.9 L -7.025,2.15 c -0.625,-5.2 3.15,-6.474 6.5,-6.474 3.375,0 7.425,1.274 8.05,6.474 L 9.1,14.825 H 4.2 L 2.675,2.525 C 2.425,0.4 1.275,0 0,0"
             style="fill:#ffffff;fill-opacity:1;fill-rule:evenodd;stroke:none"
             id="path981"
             inkscape:connector-curvature="0" /></g><g
           id="g983"
           transform="translate(173.0366,207.7609)"><path
             d="m 0,0 c -0.525,-4.175 -1.325,-5.425 -3.3,-5.425 -1.975,0 -2.475,1.25 -1.95,5.425 0.5,4.175 1.3,5.425 3.275,5.425 C 0,5.425 0.5,4.175 0,0 m -10.225,0 c -0.75,-5.925 0.2,-9.774 6.4,-9.774 6.2,0 8.05,3.849 8.8,9.774 0.725,5.925 -0.2,9.775 -6.4,9.775 -6.2,0 -8.075,-3.85 -8.8,-9.775"
             style="fill:#ffffff;fill-opacity:1;fill-rule:evenodd;stroke:none"
             id="path985"
             inkscape:connector-curvature="0" /></g><g
           id="g987"
           transform="translate(707.2393,293.4123)"><path
             d="m 0,0 c -0.06,-0.479 -0.27,-1.109 -1.109,-1.109 h -2.04 L -2.88,1.11 h 2.04 C -0.18,1.11 0.091,0.66 0,0 m -0.479,-6.689 h 3.12 l -1.71,3.809 c 1.17,0.631 1.679,1.83 1.83,2.971 C 3,2.041 2.25,3.57 -0.479,3.57 H -5.31 L -6.569,-6.689 h 2.729 l 0.39,3.299 h 1.74 z"
             style="fill:#ffffff;fill-opacity:1;fill-rule:evenodd;stroke:none"
             id="path989"
             inkscape:connector-curvature="0" /></g><g
           id="g991"
           transform="translate(704.8096,284.383)"><path
             d="m 0,0 c -4.2,0 -7.44,2.04 -6.78,7.439 0.66,5.431 4.41,7.471 8.61,7.471 4.14,0 7.41,-2.04 6.75,-7.471 C 7.92,2.04 4.14,0 0,0 m -0.33,-2.28 c 5.49,0 10.41,2.61 11.28,9.719 0.87,7.141 -3.39,9.751 -8.88,9.751 -5.43,0 -10.35,-2.61 -11.22,-9.751 -0.871,-7.109 3.39,-9.719 8.82,-9.719"
             style="fill:#ffffff;fill-opacity:1;fill-rule:evenodd;stroke:none"
             id="path993"
             inkscape:connector-curvature="0" /></g><g
           id="g995"
           transform="translate(301.6943,397.2898)"><path
             d="M 0,0 C 1.913,-30.137 5.868,-34.635 35.336,-40.183 4.53,-45.731 -0.51,-50.228 -9.693,-80.365 c -1.913,30.137 -5.868,34.634 -35.336,40.182 C -14.223,-34.635 -9.183,-30.137 0,0"
             style="fill:#ffffff;fill-opacity:1;fill-rule:evenodd;stroke:none"
             id="path997"
             inkscape:connector-curvature="0" /></g><g
           id="g999"
           transform="translate(251.2632,340.7546)"><path
             d="M 0,0 C 1.216,-19.166 3.732,-22.027 22.473,-25.555 2.881,-29.083 -0.325,-31.943 -6.164,-51.11 -7.381,-31.943 -9.896,-29.083 -28.636,-25.555 -9.045,-22.027 -5.84,-19.166 0,0"
             style="fill:#ffffff;fill-opacity:1;fill-rule:evenodd;stroke:none"
             id="path1001"
             inkscape:connector-curvature="0" /></g></g></g></g></svg>